<svg xmlns="http://www.w3.org/2000/svg" viewBox="0 0 1850.35 2501.8"><defs><style>.cls-1{fill:none;stroke:#000;stroke-linejoin:round;stroke-width:55px;}</style></defs><g id="Capa_2" data-name="Capa 2"><g id="Capa_1-2" data-name="Capa 1"><g id="Imagotipo"><g id="Isotipo"><polygon class="cls-1" points="925.17 27.5 147.76 1374.01 1702.58 1374.01 925.17 27.5"/><polygon class="cls-1" points="925.17 1374.01 536.47 700.75 1313.88 700.75 925.17 1374.01"/><line id="línea" class="cls-1" x1="925.17" y1="27.5" x2="925.17" y2="1374.01"/><circle id="círculo" class="cls-1" cx="925.17" cy="925.17" r="897.67"/></g><g id="Logotipo"><path d="M90.75,2430.91l-.54,7.09-26.45,59.71H27.5l93.25-201.49,93.51,201.49H177.73l-25.9-58.08-.55-7.9-30.53-70.89Zm-13.63-9.54h88.61l6,27.26H70.85Z"/><path d="M385.43,2306.85v190.86H353.26V2306.85Zm-13.09,0h39.81q21,0,36.26,7.37a57.48,57.48,0,0,1,23.86,20.58q8.58,13.23,8.59,31.22t-8.59,31.35a57.09,57.09,0,0,1-23.86,20.72q-15.27,7.36-36.26,7.37H372.34v-26.72h38.45a46.88,46.88,0,0,0,19.35-3.68A29,29,0,0,0,443,2384.15q4.64-7.21,4.63-17.31,0-10.37-4.63-17.45a30.14,30.14,0,0,0-12.82-10.91,45.44,45.44,0,0,0-19.35-3.82H372.34Zm55.08,99.79,64.89,91.07h-39l-60.53-91.07Z"/><path d="M613.9,2306.85H747v29.72H696.52v161.14H664.34V2336.57H613.9Z"/><path d="M918.48,2306.85v190.86H886.85V2306.85Zm-11.73,0H1003v28.36H906.75Zm0,74.71h90.8v27.81h-90.8Zm0,87.79H1003v28.36H906.75Z"/><path d="M1180,2497.71h-33.26l26.17-200.4,78.25,129.51,78.52-129.51,26.18,200.4h-33.27l-13.08-116.15L1251.19,2480l-58.07-98.43Z"/><path d="M1539.21,2306.85v190.86h-32.72V2306.85Z"/><path d="M1723.74,2455.45a56.24,56.24,0,0,0,16.08,12.81,41.45,41.45,0,0,0,19.5,4.64q13.08,0,21.27-7.09t8.18-18.54q0-10.36-5-16.77t-14.31-10.91a225.54,225.54,0,0,0-21.27-8.86,144.83,144.83,0,0,1-15.81-6.68,85,85,0,0,1-16.63-10.63,52.8,52.8,0,0,1-13.09-15.81q-5.19-9.41-5.18-22.77a46.52,46.52,0,0,1,7.9-26.86,53.74,53.74,0,0,1,21.41-18.13q13.5-6.54,30.67-6.54,16.9,0,29.45,6.13a73.66,73.66,0,0,1,34.62,34.77l-25.9,14.72a70,70,0,0,0-9.27-13.22,43,43,0,0,0-12.68-9.82,36.49,36.49,0,0,0-16.76-3.68q-13.36,0-19.64,6.14a19.4,19.4,0,0,0-6.27,14.31,21.13,21.13,0,0,0,4.5,13.22q4.5,5.86,14,11a181.06,181.06,0,0,0,24.81,10.63,115.67,115.67,0,0,1,17.32,7.63,69,69,0,0,1,15.54,11.45,54.78,54.78,0,0,1,11.31,16.23,51.66,51.66,0,0,1,4.37,21.94,52.32,52.32,0,0,1-19.64,41.86,67.89,67.89,0,0,1-20.31,11.17,70.84,70.84,0,0,1-23.58,4,72.35,72.35,0,0,1-31-6.68,83.59,83.59,0,0,1-25.08-17.86,92.44,92.44,0,0,1-17-24.27l24-16.9A111.78,111.78,0,0,0,1723.74,2455.45Z"/></g></g></g></g></svg>