<svg xmlns="http://www.w3.org/2000/svg" viewBox="0 0 1795.35 205.58"><g id="Capa_2" data-name="Capa 2"><g id="Capa_1-2" data-name="Capa 1"><g id="Imagotipo"><g id="Logotipo"><path d="M63.25,134.69l-.54,7.09L36.26,201.49H0L93.25,0l93.51,201.49H150.23l-25.9-58.08-.55-7.9L93.25,64.62Zm-13.63-9.54h88.61l6,27.26H43.35Z"/><path d="M357.93,10.63V201.49H325.76V10.63Zm-13.09,0h39.81q21,0,36.26,7.36a57.58,57.58,0,0,1,23.86,20.59q8.58,13.23,8.59,31.22t-8.59,31.35a57.09,57.09,0,0,1-23.86,20.72q-15.27,7.37-36.26,7.37H344.84V102.52h38.45a46.72,46.72,0,0,0,19.35-3.69,28.88,28.88,0,0,0,12.82-10.9,31.39,31.39,0,0,0,4.63-17.31q0-10.37-4.63-17.45a30.14,30.14,0,0,0-12.82-10.91,45.44,45.44,0,0,0-19.35-3.82H344.84Zm55.08,99.79,64.89,91.07h-39l-60.53-91.07Z"/><path d="M586.4,10.63H719.46V40.35H669V201.49H636.84V40.35H586.4Z"/><path d="M891,10.63V201.49H859.35V10.63Zm-11.73,0H975.5V39H879.25Zm0,74.71h90.8v27.81h-90.8Zm0,87.79H975.5v28.36H879.25Z"/><path d="M1152.53,201.49h-33.26l26.17-200.4,78.25,129.51L1302.21,1.09l26.18,200.4h-33.27L1282,85.34l-58.35,98.42-58.07-98.42Z"/><path d="M1511.71,10.63V201.49H1479V10.63Z"/><path d="M1696.24,159.23A56.24,56.24,0,0,0,1712.32,172a41.45,41.45,0,0,0,19.5,4.64q13.08,0,21.27-7.09t8.18-18.54q0-10.37-5-16.77t-14.31-10.91a225.54,225.54,0,0,0-21.27-8.86,144.83,144.83,0,0,1-15.81-6.68A85,85,0,0,1,1688.2,97.2a52.8,52.8,0,0,1-13.09-15.81q-5.19-9.42-5.18-22.77a46.52,46.52,0,0,1,7.9-26.86,53.66,53.66,0,0,1,21.41-18.13q13.5-6.54,30.67-6.54,16.9,0,29.45,6.13A73.66,73.66,0,0,1,1794,48l-25.9,14.72a69.34,69.34,0,0,0-9.27-13.22,42.84,42.84,0,0,0-12.68-9.82A36.49,36.49,0,0,0,1729.37,36q-13.36,0-19.64,6.13a19.43,19.43,0,0,0-6.27,14.32,21.15,21.15,0,0,0,4.5,13.22q4.5,5.86,14,11a179.71,179.71,0,0,0,24.81,10.64A115.67,115.67,0,0,1,1764.13,99a69,69,0,0,1,15.54,11.45A54.86,54.86,0,0,1,1791,126.64a51.7,51.7,0,0,1,4.37,22,52.28,52.28,0,0,1-19.64,41.85,67.7,67.7,0,0,1-20.31,11.18,70.84,70.84,0,0,1-23.58,4,72.35,72.35,0,0,1-31-6.68A83.77,83.77,0,0,1,1675.79,181a92.44,92.44,0,0,1-17-24.27l24-16.9A111.78,111.78,0,0,0,1696.24,159.23Z"/></g></g></g></g></svg>