<svg version="1.0" xmlns="http://www.w3.org/2000/svg"
 width="451.000000pt" height="255.000000pt" viewBox="0 0 451.000000 255.000000"
 preserveAspectRatio="xMidYMid meet">
<metadata>
Created by potrace 1.16, written by Peter Selinger 2001-2019
</metadata>
<g transform="translate(0.000000,255.000000) scale(0.100000,-0.100000)"
fill="#000000" stroke="none">
<path d="M366 2542 c-6 -11 1 -72 26 -212 11 -63 22 -131 25 -150 3 -19 18
-57 33 -85 20 -35 30 -71 35 -120 4 -38 14 -83 22 -100 42 -81 51 -104 62
-160 32 -154 124 -281 236 -324 18 -6 21 -10 8 -7 -26 5 -29 11 46 -87 29 -38
51 -57 65 -57 17 0 18 -2 6 -10 -13 -8 -12 -11 5 -24 11 -9 14 -16 8 -16 -15
0 -17 -36 -3 -45 6 -3 10 -17 10 -30 0 -36 10 -55 31 -55 20 0 25 -15 9 -25
-6 -4 -8 -16 -5 -28 5 -21 5 -21 -7 -3 -22 31 -111 127 -163 175 -89 83 -191
191 -179 191 3 0 -2 7 -11 16 -57 58 -187 304 -163 313 5 1 2 8 -7 15 -17 12
-57 144 -49 158 3 4 1 8 -5 8 -5 0 -12 26 -16 58 -3 31 -10 73 -15 92 -6 19
-11 104 -13 187 -2 173 -20 213 -25 55 -1 -53 -5 -128 -10 -167 -4 -38 -4
-131 1 -205 10 -176 11 -184 20 -191 4 -3 11 -50 16 -105 10 -111 54 -235 116
-329 25 -36 31 -53 23 -62 -8 -10 0 -13 36 -13 29 0 45 4 41 10 -3 6 -15 10
-26 10 -11 0 -18 4 -15 9 3 5 -1 11 -9 15 -8 3 -15 12 -15 21 0 8 -6 15 -12
15 -9 0 -8 4 2 10 12 7 12 10 1 10 -7 0 -11 6 -8 14 3 8 1 17 -6 20 -9 3 -9 5
0 5 12 1 6 41 -6 41 -11 0 -41 56 -41 76 0 15 3 14 17 -6 17 -24 28 -38 65
-82 10 -11 20 -30 24 -42 4 -11 22 -39 40 -60 18 -21 31 -42 28 -47 -2 -4 4
-12 13 -18 10 -6 14 -11 9 -11 -13 0 30 -40 44 -40 5 0 43 -32 84 -71 51 -48
77 -80 82 -102 3 -18 9 -36 12 -42 4 -5 5 -22 3 -37 -2 -18 3 -28 16 -31 14
-4 13 -5 -5 -6 -18 -1 -21 -4 -13 -19 11 -20 -7 -100 -28 -126 -12 -14 -11
-16 10 -17 17 -1 19 -3 6 -6 -18 -5 -23 -38 -7 -48 13 -8 8 -54 -5 -48 -16 6
-38 -24 -31 -42 4 -10 -1 -15 -15 -15 -16 0 -18 4 -10 18 5 9 11 39 12 66 3
38 -1 51 -16 62 -18 14 -18 14 1 14 14 0 15 3 6 9 -7 4 -15 17 -16 27 -2 12
-11 19 -25 20 -12 1 -27 6 -34 13 -6 6 -19 11 -30 11 -16 0 -18 5 -12 31 6 28
5 30 -13 25 -18 -6 -21 -3 -20 21 1 40 -12 93 -23 93 -5 0 -9 -5 -9 -11 0 -6
-8 -8 -19 -4 -35 11 -19 -61 37 -171 29 -55 52 -104 52 -108 0 -3 11 -24 24
-45 24 -38 54 -153 57 -221 0 -19 -2 -68 -6 -107 -6 -57 -5 -73 5 -73 7 0 11
-3 7 -6 -10 -11 39 -98 81 -143 l38 -41 256 0 256 0 -10 33 c-9 28 -6 39 27
97 21 36 53 94 72 130 146 273 195 339 316 430 35 27 46 42 47 62 l0 28 58
-44 c87 -66 108 -89 135 -142 20 -42 31 -71 63 -181 7 -27 31 -2 28 29 -4 27
-2 29 13 17 14 -12 15 -12 9 0 -7 10 -3 12 14 6 15 -5 20 -4 16 4 -4 6 0 11
11 11 15 0 16 2 3 10 -8 5 -25 7 -36 4 -12 -3 -25 0 -29 7 -6 9 6 10 49 5 42
-6 63 -14 83 -34 16 -16 28 -22 30 -15 5 14 34 5 49 -15 9 -13 12 -13 17 1 5
12 12 14 35 7 20 -5 34 -4 42 3 10 9 11 9 5 -1 -6 -11 -3 -12 13 -3 47 25 35
32 -47 28 -45 -3 -83 -1 -87 4 -3 5 -20 9 -37 10 -31 1 -31 1 -7 9 35 11 52
12 46 1 -3 -5 5 -11 19 -13 14 -3 25 -1 25 3 0 5 -5 9 -10 9 -12 0 -60 48 -60
59 0 4 5 12 12 19 8 8 8 15 -2 27 -19 22 -29 18 -24 -10 2 -14 6 -36 8 -50 3
-14 0 -25 -5 -25 -5 0 -9 5 -9 10 0 15 -27 12 -33 -4 -4 -11 -16 -13 -44 -9
-67 10 -66 6 -60 218 5 184 16 253 37 240 5 -3 10 -2 10 4 0 5 8 12 18 15 9 2
4 4 -13 3 -29 -2 -30 0 -33 48 -2 28 -9 53 -15 57 -17 10 -5 17 44 28 l44 9
-52 -5 c-31 -3 -53 -1 -53 5 0 5 -7 17 -16 25 -14 15 -13 16 10 16 28 0 43
-15 24 -23 -7 -3 10 -5 39 -4 51 2 58 15 12 22 -113 18 -107 15 -136 64 -14
25 -39 63 -55 85 -26 37 -34 62 -42 134 -3 24 0 30 9 22 6 -5 15 -7 18 -3 13
12 7 23 -13 23 -11 0 -20 5 -20 11 0 6 7 9 15 5 8 -3 15 -1 15 4 0 6 -7 10
-15 10 -9 0 -15 6 -14 13 2 6 0 30 -4 52 -13 83 -18 122 -22 190 -2 39 -6 77
-9 85 -2 8 -7 43 -10 76 -7 76 -64 238 -111 313 -20 31 -41 65 -48 76 -7 11
-36 45 -66 77 -29 31 -60 67 -69 80 -9 13 -21 26 -26 30 -17 12 -426 10 -426
-2 0 -6 37 -11 88 -12 l87 -2 -100 -5 c-109 -7 -125 -5 -122 12 1 8 -70 12
-252 14 -222 3 -252 1 -247 -12 3 -10 -1 -15 -14 -15 -10 0 -22 -5 -26 -12 -5
-8 -12 -2 -20 17 l-13 30 -1 -32 c0 -46 -16 -49 -26 -5 l-8 37 -6 -40 -7 -40
-2 38 -1 37 -59 0 c-33 0 -62 -4 -65 -8z m689 -241 c128 -45 166 -74 113 -84
-20 -4 -19 -4 5 -6 15 0 27 4 27 10 0 6 6 9 13 6 6 -2 11 -9 10 -15 -1 -5 7
-8 17 -5 14 4 20 0 20 -11 0 -10 4 -15 9 -12 5 3 29 -6 55 -20 46 -26 50 -37
31 -101 -3 -7 -42 -11 -120 -12 -114 -1 -116 -1 -105 19 15 28 9 130 -7 130
-7 0 -13 5 -13 11 0 5 -5 7 -12 3 -7 -4 -8 -3 -4 4 16 26 -30 64 -114 95 -12
4 -11 6 3 6 10 1 42 -8 72 -18z m285 -271 c0 -3 -13 -27 -29 -52 -41 -65 -88
-98 -139 -98 -34 0 -40 -3 -35 -16 5 -15 3 -15 -20 1 -14 9 -34 15 -44 12 -13
-3 -11 -5 7 -6 15 -1 21 -4 14 -11 -6 -6 -34 -6 -74 -1 -39 5 -53 9 -35 11 20
2 11 5 -28 11 -65 9 -149 52 -187 96 l-25 28 25 -22 c26 -22 123 -70 150 -73
36 -5 253 1 247 6 -3 3 -60 10 -127 15 -129 10 -187 29 -230 75 -23 23 -23 24
-3 24 11 0 26 -6 32 -14 7 -8 27 -21 46 -30 39 -19 223 -47 230 -35 3 4 -21
11 -52 15 -45 5 -53 9 -36 15 12 4 37 4 55 -1 30 -9 31 -8 14 5 -18 14 -19 16
-2 34 15 17 31 19 132 18 63 0 114 -4 114 -7z m124 -94 c23 -36 21 -130 -5
-177 l-12 -24 -11 26 c-6 15 -15 27 -21 27 -5 0 -12 9 -16 19 -7 17 -8 16 -8
-2 -1 -11 -5 -16 -9 -10 -4 6 -20 16 -35 23 -23 10 -27 10 -21 0 6 -9 3 -9 -9
1 -13 10 -17 10 -17 1 0 -9 -4 -9 -17 1 -11 10 -14 10 -9 2 9 -15 -3 -17 -24
-3 -24 15 1 44 46 51 32 5 34 6 10 8 -29 1 -29 1 -10 22 54 61 139 79 168 35z
m101 -56 c-3 -5 -2 -10 4 -10 5 0 23 -27 40 -60 l31 -60 -22 -37 c-12 -21 -23
-40 -25 -42 -1 -2 -9 2 -17 8 -8 7 -20 10 -25 6 -7 -4 -8 1 -4 12 3 10 3 15
-1 11 -4 -3 -17 3 -28 14 -18 18 -19 24 -8 66 10 41 44 102 56 102 3 0 2 -4
-1 -10z m-695 -159 c0 12 2 12 9 0 5 -7 13 -11 19 -7 6 3 14 2 17 -4 4 -6 -14
-30 -40 -52 -26 -23 -59 -61 -74 -85 -24 -39 -29 -42 -41 -28 -11 13 -10 15 6
9 15 -5 16 -4 4 4 -8 6 -17 9 -21 6 -9 -5 -49 49 -49 65 0 6 10 12 23 12 l22
2 -22 4 c-27 5 -28 7 -7 38 14 21 24 25 65 25 26 0 51 5 54 10 5 8 11 7 21 -1
11 -9 14 -8 14 2z m295 -95 c13 18 14 18 8 -3 -6 -26 14 -32 24 -7 5 13 7 13
14 2 10 -16 49 -19 50 -4 0 6 7 -2 15 -19 l15 -30 -5 35 -5 35 13 -28 c7 -15
15 -24 19 -21 4 4 7 0 7 -8 0 -9 -14 -28 -31 -42 -26 -22 -38 -25 -82 -22 -51
4 -52 3 -14 -7 34 -10 51 -27 27 -27 -5 0 -10 -4 -10 -10 0 -27 101 -1 138 36
7 8 18 12 23 9 5 -4 9 0 10 7 0 7 5 2 10 -11 11 -28 18 -23 30 21 l8 33 -2
-36 c-2 -24 2 -36 11 -36 7 0 11 6 8 13 -3 7 2 10 15 7 12 -3 19 0 19 8 0 11
2 11 10 -1 8 -12 10 -12 10 -1 0 10 3 11 13 2 8 -6 16 -8 20 -5 3 3 -3 -25
-14 -63 -11 -37 -30 -76 -41 -85 -11 -10 -15 -18 -9 -18 6 0 11 -5 11 -12 0
-6 -11 -1 -24 11 -13 12 -30 22 -37 21 -24 -4 -60 12 -56 24 23 60 22 62 -18
27 l-39 -34 -84 7 c-50 4 -101 14 -125 26 l-42 19 50 1 c59 2 51 7 -30 20
l-60 9 60 -4 c33 -2 76 -7 95 -9 l35 -6 -40 14 c-22 8 -55 15 -73 15 -19 1
-31 5 -27 11 3 6 1 10 -6 10 -8 0 -9 3 0 13 6 8 8 17 4 20 -3 4 -1 7 6 7 7 0
10 3 7 8 -2 4 2 22 9 39 10 23 19 31 29 27 12 -4 16 0 17 17 l0 24 10 -24 c9
-23 10 -24 24 -5z m376 -457 c18 -22 47 -47 63 -56 21 -10 27 -11 19 -2 -7 7
-13 18 -13 23 0 6 19 -8 41 -29 36 -35 39 -36 23 -11 -10 16 -19 37 -19 45 0
17 37 41 64 41 14 0 14 2 1 10 -11 7 -8 10 15 9 17 0 24 -3 18 -6 -7 -2 -13
-11 -13 -20 0 -10 -6 -13 -22 -8 -18 5 -20 4 -8 -4 12 -9 13 -11 1 -11 -8 0
-12 -2 -9 -5 9 -9 68 17 62 27 -4 6 -1 9 7 6 13 -4 54 -106 46 -115 -2 -2 -14
-5 -26 -8 -30 -5 -42 -15 -36 -26 4 -5 -1 -9 -9 -9 -10 0 -13 6 -10 15 5 12
-3 15 -39 15 -71 0 -234 115 -212 150 11 17 21 11 56 -31z m-131 -34 c0 -9 7
-27 16 -40 15 -23 15 -25 0 -25 -10 0 -14 -4 -11 -10 6 -10 -7 -14 -34 -11 -7
2 -10 -2 -6 -8 8 -14 -13 -36 -44 -46 -12 -4 -20 -9 -17 -12 12 -12 -70 -62
-104 -64 -32 -1 -33 -2 -10 -9 20 -6 21 -8 5 -8 -11 0 -31 4 -45 8 -24 8 -24
8 -2 9 29 1 41 30 18 46 -12 9 -15 20 -11 38 l7 26 31 -20 c18 -10 43 -18 57
-18 l25 2 -24 4 c-13 3 -36 16 -50 29 l-26 25 25 -4 c14 -2 19 -2 13 0 -13 5
-18 35 -7 45 8 9 44 -3 38 -13 -3 -5 2 -12 10 -15 9 -3 14 -9 12 -13 -3 -4 11
-11 29 -17 19 -6 32 -8 30 -4 -2 4 6 12 20 18 13 6 29 20 35 32 9 18 8 20 -15
20 l-25 0 22 25 c25 29 38 32 38 10z m248 -384 c29 -1 41 -5 36 -12 -5 -8 -1
-8 14 0 36 19 37 12 2 -24 l-34 -35 -252 0 -252 0 -4 -47 c-3 -41 1 -51 37
-97 52 -67 64 -75 103 -76 33 0 42 -16 21 -37 -8 -8 -7 -28 4 -75 15 -59 21
-121 17 -178 l-1 -25 -10 24 c-5 14 -7 31 -5 38 3 7 2 13 -3 13 -5 0 -18 24
-30 54 -12 29 -47 91 -77 137 -73 110 -107 179 -132 262 -15 49 -17 69 -9 73
12 4 486 11 517 7 8 -1 34 -2 58 -2z m-743 -201 c16 -6 25 -16 22 -24 -8 -19
3 -30 57 -56 30 -14 56 -36 69 -57 11 -19 29 -38 41 -43 12 -4 32 -27 45 -51
l24 -43 -34 24 c-50 35 -92 70 -83 70 4 0 -1 7 -12 15 -10 8 -32 15 -47 15
-20 0 -30 6 -34 20 -3 11 -9 20 -14 20 -4 0 -22 13 -39 30 -19 18 -30 24 -30
15 0 -9 -6 -12 -15 -9 -11 5 -12 10 -5 18 6 9 6 17 -3 26 -10 10 -8 12 11 7
15 -4 22 -1 19 6 -2 7 -12 11 -21 11 -9 -1 -16 2 -16 7 0 12 32 11 65 -1z"/>
<path d="M2100 2493 c-16 -78 -45 -126 -90 -152 -56 -31 -73 -28 -65 12 5 24
4 28 -4 17 -6 -8 -11 -23 -11 -32 0 -15 -4 -15 -50 4 -27 11 -47 24 -44 29 3
5 -2 9 -11 9 -25 0 -11 -13 57 -56 60 -37 67 -39 148 -39 75 0 93 4 154 33 37
17 78 32 90 33 11 0 15 3 9 6 -10 4 -10 7 0 17 22 24 52 60 76 94 13 19 27 30
31 25 13 -14 20 -73 9 -73 -6 0 -9 -6 -6 -12 2 -7 10 -13 17 -13 19 0 111
-178 96 -187 -7 -5 -5 -8 6 -8 9 0 23 -12 31 -27 8 -16 32 -63 55 -106 22 -43
46 -103 52 -133 6 -30 14 -54 17 -54 13 0 -11 149 -33 209 -37 97 -64 182 -63
195 0 6 5 2 10 -9 7 -15 8 -12 4 15 -3 19 -7 62 -10 95 -4 57 -4 58 5 16 5
-25 14 -49 20 -55 5 -5 10 -18 10 -27 0 -20 30 -80 45 -91 7 -5 7 -8 0 -8 -5
0 23 -18 64 -40 41 -21 77 -37 81 -35 4 3 18 -4 30 -15 13 -11 28 -20 34 -20
6 0 28 -15 48 -34 20 -19 39 -31 42 -28 3 3 6 1 6 -4 0 -6 7 -19 16 -30 15
-19 15 -18 11 4 -8 34 18 27 37 -10 l17 -33 -6 30 c-3 17 -6 36 -7 43 -1 6 -6
12 -11 12 -6 0 -7 3 -4 6 4 4 14 1 23 -7 13 -11 18 -11 21 -1 7 19 24 14 51
-15 13 -16 22 -21 19 -12 -3 9 3 21 15 28 16 10 23 10 37 -3 10 -9 42 -16 86
-19 l70 -3 -69 -2 c-50 -1 -67 -5 -63 -14 22 -50 67 -161 67 -165 0 -2 -9 -1
-20 2 -13 4 -20 2 -20 -7 0 -10 -2 -10 -9 1 -6 9 -20 11 -47 7 -22 -3 -57 -1
-79 3 l-40 9 48 1 c26 0 47 6 47 12 0 6 -9 8 -21 4 -15 -5 -19 -4 -15 4 4 6 2
11 -3 11 -6 0 -11 -4 -11 -10 0 -5 -13 -10 -29 -10 -21 0 -32 -6 -36 -20 -7
-21 -25 -28 -25 -10 0 6 -7 10 -15 10 -8 0 -12 -6 -9 -14 3 -8 1 -17 -5 -21
-6 -3 -11 -2 -11 3 0 5 -10 12 -21 15 -17 4 -19 3 -10 -6 15 -15 14 -27 -4
-27 -8 0 -15 5 -15 10 0 6 -5 10 -11 10 -6 0 -9 -6 -6 -14 5 -12 -14 -23 -53
-30 -3 -1 -11 -5 -17 -9 -8 -5 -13 -3 -13 5 0 8 -5 6 -11 -5 -6 -9 -15 -15
-20 -11 -5 3 -15 1 -22 -4 -12 -10 -95 -28 -110 -24 -5 2 -17 -8 -28 -20 -11
-13 -18 -17 -14 -10 8 15 4 15 -30 2 -24 -9 -26 -8 -21 6 6 15 4 15 -11 3 -9
-8 -14 -9 -10 -2 4 6 3 14 -3 18 -5 3 -10 1 -10 -5 0 -6 -4 -9 -9 -5 -6 3 -14
-2 -19 -11 -7 -13 -13 -14 -31 -5 -11 7 -21 16 -21 22 0 6 -4 7 -10 4 -5 -3
-10 -15 -10 -26 0 -15 -7 -19 -36 -19 -20 0 -33 -4 -29 -10 3 -5 0 -7 -8 -4
-9 3 -17 -3 -21 -19 -3 -13 -16 -28 -29 -34 -19 -9 -23 -17 -19 -41 3 -24 -1
-34 -22 -47 -14 -10 -23 -21 -20 -27 3 -5 2 -14 -4 -21 -5 -7 -8 -25 -6 -42 1
-16 3 -41 3 -55 1 -19 4 -21 13 -12 17 17 39 15 32 -2 -3 -9 -12 -12 -21 -9
-10 4 -14 2 -10 -3 4 -6 -6 -9 -24 -6 -22 3 -29 0 -29 -12 0 -10 3 -15 8 -13
4 3 13 -1 20 -9 7 -8 9 -14 5 -14 -4 0 -1 -5 7 -10 16 -10 22 -60 7 -60 -4 0
-5 -4 -2 -10 3 -5 -1 -10 -9 -10 -9 0 -16 -4 -16 -10 0 -5 26 -11 58 -12 50
-1 52 -2 14 -5 l-43 -4 32 -28 c27 -24 31 -33 27 -64 -2 -20 0 -38 4 -39 4 -2
9 -12 10 -23 6 -35 32 -62 68 -70 38 -8 87 -30 110 -50 8 -7 44 -16 80 -18 36
-3 58 -4 49 -1 -11 3 -15 12 -12 23 5 21 -30 51 -60 51 -18 0 -47 22 -47 35 0
4 9 5 21 2 17 -5 18 -3 7 10 -12 15 -10 15 12 3 22 -12 147 -23 136 -13 -2 2
-32 11 -65 19 -34 8 -74 20 -89 27 -38 18 -93 11 -90 -11 2 -9 8 -20 13 -24 6
-5 6 -8 -1 -8 -7 0 -19 11 -28 25 -10 15 -12 25 -6 25 7 0 8 5 3 13 -10 16
-13 37 -5 36 26 -4 62 3 58 10 -3 5 8 14 24 20 17 5 30 14 30 18 0 9 41 29 80
38 23 5 28 0 55 -57 25 -53 37 -66 76 -86 43 -21 52 -22 125 -13 131 17 178
35 221 87 21 25 38 48 38 52 2 22 28 113 34 117 4 2 23 -11 40 -29 31 -32 32
-36 22 -69 -26 -76 -171 -175 -261 -177 -65 -1 -65 -17 0 -24 58 -7 64 -5 89
18 28 26 57 31 141 20 33 -4 41 -2 30 5 -12 9 -11 11 8 11 12 0 22 -4 22 -9 0
-5 13 -11 30 -13 24 -4 27 -2 19 9 -15 18 -4 16 26 -3 17 -11 25 -12 25 -5 0
7 4 10 9 6 5 -3 12 -1 16 5 4 6 -6 10 -22 10 l-28 1 34 15 c19 8 31 17 28 21
-4 3 -13 0 -22 -7 -8 -7 -15 -8 -15 -2 0 14 25 33 33 25 4 -3 7 3 7 15 0 15 6
22 19 22 10 0 22 7 25 16 3 8 10 12 16 9 5 -3 10 -2 10 4 0 5 -6 12 -12 14 -7
3 0 6 15 6 25 1 27 3 16 23 -10 18 -9 20 5 15 9 -4 16 -2 16 3 0 6 8 10 18 11
11 0 7 5 -13 15 l-30 15 28 -6 c15 -3 27 -1 27 5 0 5 -8 10 -17 10 -13 1 -11
5 8 15 15 8 29 21 33 30 3 8 11 15 19 15 20 0 87 -65 88 -86 5 -69 4 -74 -11
-75 -10 0 -11 -2 -2 -6 6 -2 10 -9 6 -14 -3 -5 -1 -9 4 -9 5 0 9 -7 9 -15 0
-8 -8 -15 -18 -15 -33 0 -46 -78 -15 -90 16 -7 17 -9 5 -9 -18 -1 -35 -31 -18
-31 6 0 7 -4 4 -10 -3 -5 -14 -10 -24 -10 -16 0 -18 -7 -15 -50 3 -44 1 -50
-16 -50 -10 0 -22 -5 -25 -10 -4 -7 4 -9 22 -6 15 3 37 2 48 -2 14 -5 5 -8
-33 -12 l-53 -5 19 -21 c24 -26 36 -61 33 -96 -1 -16 2 -28 8 -28 6 0 11 -4
11 -10 0 -6 -40 -10 -100 -10 -55 0 -100 -4 -100 -9 0 -5 20 -7 44 -5 30 3 47
0 56 -11 7 -8 19 -15 26 -15 8 0 14 -7 14 -15 0 -9 -9 -15 -22 -15 -19 0 -20
2 -8 11 10 7 11 9 2 7 -8 -2 -12 -6 -10 -9 2 -3 -4 -14 -12 -24 -14 -17 -13
-18 4 -8 14 8 23 7 32 -1 9 -8 5 -14 -20 -23 l-31 -13 29 3 c18 1 31 -4 34
-12 3 -8 -1 -12 -9 -9 -8 3 -18 -1 -24 -8 -6 -8 -32 -14 -60 -15 -46 -2 -51
-4 -51 -25 0 -17 3 -20 12 -13 9 8 11 5 8 -8 -5 -17 -42 -35 -101 -50 -12 -3
-24 -11 -27 -19 -4 -10 4 -14 29 -14 19 0 35 5 35 10 0 6 5 10 10 10 6 0 9 -3
9 -7 -3 -20 2 -34 10 -29 5 3 14 0 20 -8 9 -11 4 -13 -31 -9 -61 6 -99 22 -96
42 2 9 -4 16 -12 16 -8 0 -14 -6 -12 -13 2 -10 -4 -11 -19 -7 -15 5 -19 4 -15
-4 4 -6 0 -11 -8 -11 -9 0 -16 4 -16 9 0 5 -28 16 -63 24 -133 34 -251 103
-372 221 -67 65 -85 76 -117 76 -16 0 -27 4 -26 8 2 4 -10 20 -25 35 -17 15
-26 31 -21 38 4 8 3 9 -5 5 -6 -4 -19 -2 -28 6 -15 12 -15 11 0 -12 9 -14 18
-37 20 -50 3 -16 13 -27 28 -31 l24 -7 -25 -2 c-24 -1 -24 -2 -4 -10 12 -5 28
-28 39 -57 10 -26 22 -52 26 -58 6 -5 0 -14 -13 -22 -22 -12 -22 -12 10 -13
21 0 32 -5 32 -15 0 -8 9 -29 20 -47 11 -18 20 -40 20 -48 0 -22 57 -131 83
-158 12 -13 44 -36 72 -52 54 -31 98 -75 117 -115 6 -14 18 -25 27 -25 13 0
13 -2 2 -9 -26 -17 -2 -28 63 -30 65 -2 120 14 109 32 -3 5 -9 3 -14 -4 -5 -9
-8 4 -7 34 0 26 5 47 10 47 5 0 6 -5 2 -12 -4 -7 -3 -8 5 -4 6 4 9 12 6 17 -4
5 1 12 9 15 9 3 16 10 16 15 0 5 -11 2 -25 -7 -24 -16 -25 -16 -25 8 0 22 4
24 30 20 l30 -4 0 -79 0 -79 61 0 61 0 -5 140 c-3 93 -2 140 5 140 7 0 7 5 -1
13 -8 10 -7 14 4 14 17 0 81 -64 73 -72 -3 -3 -13 1 -22 10 -9 9 -16 12 -16 7
0 -5 10 -17 23 -26 l22 -17 -23 5 c-12 2 -20 0 -16 -5 3 -5 13 -9 22 -10 14 0
13 -2 -3 -9 -14 -6 -15 -9 -5 -10 10 -1 9 -4 -5 -10 -19 -8 -19 -9 3 -9 24 -1
31 -21 7 -21 -8 0 -15 -4 -15 -10 0 -5 -8 -7 -17 -4 -16 5 -16 4 1 -10 10 -8
15 -19 11 -25 -3 -6 -2 -11 4 -11 5 0 12 8 14 17 3 10 5 -3 6 -29 1 -43 -1
-47 -21 -43 -17 4 -19 2 -9 -8 7 -7 40 -12 84 -12 82 0 77 -8 63 107 l-6 53
37 -83 c36 -79 39 -83 68 -80 27 3 32 9 54 75 l24 73 92 0 c90 0 91 0 122 32
33 36 52 68 62 107 7 23 11 25 59 22 32 -1 52 2 52 8 0 6 -20 11 -46 11 -42 0
-45 2 -39 22 13 48 95 205 130 250 l37 48 -80 -2 c-44 0 -85 3 -92 7 -7 4 -15
3 -19 -3 -4 -7 -14 -6 -30 3 -21 11 -11 12 74 10 59 -2 92 1 84 6 -8 5 -42 9
-77 9 -66 0 -87 15 -63 44 6 7 9 21 5 30 -3 9 -1 30 6 46 11 26 18 30 54 31
l41 1 -38 8 c-20 4 -39 9 -42 11 -2 3 6 27 19 54 12 28 22 60 21 72 -1 13 4
23 12 23 16 0 16 0 -1 36 -17 35 -29 74 -23 74 3 0 20 -7 40 -15 31 -13 59
-55 35 -55 -5 0 -6 -5 -2 -12 4 -7 9 -35 11 -63 1 -27 6 -68 11 -90 l8 -40 17
39 c9 21 17 44 17 52 0 7 5 16 10 19 6 4 8 10 5 15 -8 13 27 22 39 9 8 -8 8
-13 -1 -16 -8 -3 -9 -12 -3 -29 10 -26 -2 -73 -23 -86 -7 -4 24 -7 68 -6 45 1
62 3 38 5 -42 4 -43 5 -43 40 0 48 41 287 50 291 4 1 5 13 3 26 -3 13 7 56 22
97 14 41 29 107 32 147 6 68 5 72 -15 72 -37 0 -54 -11 -41 -26 9 -11 6 -14
-15 -14 -14 0 -26 -5 -26 -11 0 -6 9 -8 23 -4 18 6 17 2 -11 -24 -18 -17 -37
-31 -43 -31 -5 0 -9 -4 -9 -8 0 -5 -21 -19 -46 -31 -34 -17 -56 -22 -85 -18
-39 5 -57 -9 -19 -15 19 -3 18 -6 -12 -39 -18 -20 -45 -44 -60 -54 -16 -10
-25 -22 -21 -29 4 -6 -2 -4 -12 4 -10 8 -16 10 -12 3 4 -6 3 -14 -3 -18 -5 -3
-10 -2 -10 4 0 16 22 61 30 61 5 0 8 6 7 13 -1 40 4 56 17 51 7 -3 16 2 19 10
4 10 1 16 -8 16 -16 0 -20 12 -9 23 4 4 7 28 7 54 0 35 5 51 18 61 11 7 22 11
27 9 4 -3 16 0 27 4 18 9 18 9 -2 5 -13 -2 -26 0 -29 5 -3 5 3 9 13 9 14 0 15
2 4 9 -10 6 5 19 55 47 56 31 78 38 116 37 l46 -2 26 80 c33 101 54 206 58
281 2 32 5 58 8 58 3 0 4 36 2 80 -3 66 -6 80 -20 81 -15 0 -15 1 0 7 15 6 18
28 23 171 l6 163 -128 -5 c-70 -3 -128 -6 -129 -6 0 -1 7 -24 17 -53 19 -58
17 -71 -14 -85 -36 -15 -85 -8 -112 17 -13 12 -23 25 -23 29 1 3 -2 17 -6 30
-6 16 -4 26 5 32 11 7 9 9 -6 9 -15 0 -17 2 -6 9 17 11 -46 19 -171 21 -57 0
-98 -3 -98 -9 0 -5 8 -29 18 -53 11 -24 36 -104 56 -178 39 -141 41 -145 106
-304 22 -55 40 -104 40 -109 0 -19 -134 174 -149 216 -10 25 -14 27 -46 21
-23 -4 -35 -2 -35 5 0 6 -7 11 -16 11 -8 0 -12 5 -9 10 3 6 19 10 34 10 37 0
51 18 45 60 -2 19 -6 52 -9 74 -3 21 -12 51 -20 67 -13 24 -19 28 -45 22 -34
-6 -38 2 -13 29 20 22 27 81 14 107 -9 16 -26 18 -151 20 l-140 1 -12 -25
c-14 -31 -29 -33 -25 -3 1 14 -4 23 -14 26 -13 2 -18 -8 -23 -46 -3 -28 -14
-56 -23 -63 -15 -13 -16 -9 -10 49 7 60 6 62 -17 62 -21 0 -28 -12 -61 -105
-20 -58 -41 -105 -46 -105 -14 0 -11 21 16 114 14 47 25 88 25 91 0 3 -85 5
-189 5 l-189 0 -10 -27 c-9 -23 -11 -24 -12 -8 -1 11 -2 23 -1 28 0 4 -6 7
-14 7 -11 0 -15 -13 -16 -52 -1 -54 -8 -47 -23 25 -11 50 -28 30 -24 -29 3
-53 2 -54 -14 -34 -10 12 -20 37 -24 56 -4 21 -12 34 -21 34 -12 0 -14 -7 -9
-31 5 -27 4 -30 -9 -19 -8 6 -17 20 -20 31 -6 18 -19 19 -260 19 l-254 0 -11
-57z m2053 -126 c-18 -5 -33 -14 -33 -20 0 -5 7 -7 15 -3 8 3 15 1 15 -3 0 -5
-6 -12 -12 -14 -9 -4 -8 -6 2 -6 19 -1 25 -48 8 -69 -10 -11 -9 -17 7 -28 16
-12 17 -14 2 -14 -14 0 -16 -11 -14 -74 2 -68 1 -72 -11 -50 -8 14 -15 47 -17
72 l-3 47 -78 6 c-44 3 -95 5 -114 3 -19 -2 -27 -1 -17 2 9 3 17 9 17 14 0 16
32 20 53 5 21 -15 101 -20 130 -9 12 4 13 12 4 40 -10 33 -11 33 -33 19 -21
-13 -23 -13 -21 4 1 11 6 18 12 15 5 -3 3 1 -6 7 -15 11 -15 14 5 30 l21 18
-27 1 c-14 0 -35 3 -45 7 -28 12 27 19 106 14 61 -4 64 -5 34 -14z m-827 -602
c4 -8 14 -15 23 -15 36 -1 -36 -29 -79 -31 -33 -2 -25 -4 30 -8 58 -5 76 -10
78 -22 8 -42 -147 -169 -205 -169 -19 0 -32 4 -29 8 3 5 19 7 36 4 18 -2 30 0
30 7 0 6 -10 11 -22 11 -20 0 -20 1 -5 18 30 32 18 33 -25 2 -23 -17 -48 -28
-56 -25 -20 7 -37 -6 -21 -16 11 -7 10 -9 -3 -9 -10 0 -18 5 -18 11 0 6 -17 8
-47 5 -35 -4 -41 -3 -23 3 24 9 24 9 -8 10 -18 1 -31 -3 -28 -8 3 -4 -29 -9
-72 -9 -42 -1 -70 2 -62 5 8 3 18 11 22 17 5 8 8 7 8 -1 0 -7 8 -13 18 -13 11
0 13 3 5 8 -8 5 -9 13 -3 22 5 9 5 19 -2 27 -14 18 45 42 107 45 37 1 48 6 55
22 4 12 10 20 14 19 3 -2 16 -2 29 -1 12 1 -3 4 -33 8 -46 6 -49 7 -17 8 21 1
49 9 62 18 14 9 25 12 25 6 0 -6 -6 -13 -12 -15 -8 -3 -5 -6 5 -6 19 -1 50 23
41 31 -2 3 11 4 28 3 23 -2 37 4 47 17 11 16 15 17 22 7 7 -12 13 -11 36 3 36
21 42 21 49 3z m89 -107 c7 -7 36 -31 64 -53 28 -22 51 -43 51 -47 0 -5 -14
-8 -31 -8 -25 0 -30 3 -25 17 6 15 5 15 -13 -1 -12 -11 -27 -16 -37 -12 -14 5
-15 4 -5 -8 10 -12 -2 -19 -70 -46 -45 -17 -84 -29 -87 -26 -2 3 2 8 11 12 9
3 40 46 69 95 29 48 54 89 56 89 2 0 9 -6 17 -12z m-697 -300 c-21 -6 -38 -16
-38 -23 0 -8 -24 -27 -52 -44 -29 -16 -65 -42 -80 -56 -15 -14 -31 -25 -35
-25 -5 0 -15 -9 -23 -20 -8 -11 -20 -20 -27 -20 -6 0 -16 -7 -21 -16 -6 -11
-11 -13 -16 -5 -9 15 -46 14 -46 -1 0 -6 -3 -8 -7 -5 -3 4 1 15 10 25 10 10
15 22 12 25 -3 4 1 3 7 -3 7 -5 17 -10 23 -10 5 0 3 5 -5 10 -12 8 -12 10 5
11 l20 0 -20 9 -20 9 20 0 c16 1 17 3 6 10 -9 6 -22 4 -37 -6 -12 -8 -38 -13
-56 -11 -26 2 -34 8 -36 27 -2 13 2 28 10 32 9 6 9 9 1 9 -6 0 -11 9 -10 19 0
11 5 17 10 14 4 -3 17 3 27 12 11 10 26 15 34 12 9 -4 18 -2 21 4 4 5 13 3 22
-6 14 -14 17 -14 33 0 17 15 50 11 50 -6 0 -4 8 -6 18 -2 10 3 6 -2 -8 -13
-14 -10 -29 -19 -35 -19 -5 -1 -9 -6 -7 -13 1 -7 -2 -12 -8 -12 -5 0 -10 -7
-10 -15 0 -8 5 -15 10 -15 6 0 10 5 10 10 0 6 5 10 10 10 6 0 33 16 60 35 28
19 60 36 73 38 32 3 49 20 28 29 -9 4 13 6 49 6 62 0 63 -1 28 -10z m1191
-425 c33 -27 41 -81 22 -134 -9 -24 -25 -48 -36 -54 -12 -6 -20 -19 -19 -33 2
-28 1 -29 -67 -37 l-56 -7 4 43 c3 24 8 48 12 54 5 5 7 18 6 28 -3 18 0 19 49
21 48 2 45 26 -3 26 -23 0 -41 5 -41 10 0 6 11 8 25 4 23 -6 25 -3 25 25 0 63
37 88 79 54z m-75 -424 c8 -9 8 -10 -1 -5 -7 4 -24 4 -39 0 -22 -6 -25 -11
-20 -35 4 -19 1 -29 -7 -30 -9 0 -9 -2 1 -6 6 -2 10 -8 8 -12 -3 -4 5 -13 17
-20 12 -8 19 -10 15 -6 -5 5 6 17 24 27 47 29 94 18 113 -29 18 -42 18 -46 5
-38 -5 3 -10 1 -10 -4 0 -6 6 -11 13 -11 8 0 7 -4 -3 -10 -10 -6 -11 -10 -2
-10 19 0 14 -27 -10 -63 -34 -47 -50 -58 -78 -50 -14 3 -40 6 -57 5 -18 -1
-33 3 -33 8 0 6 -11 10 -24 10 -24 0 -24 2 -14 32 6 18 13 27 16 20 2 -8 10
-7 27 4 13 9 28 14 32 11 4 -2 17 5 28 16 l20 20 -27 -5 c-15 -3 -26 -2 -24 1
2 3 -2 12 -10 18 -7 7 -15 9 -19 4 -3 -5 1 -12 7 -14 7 -3 4 -6 -7 -6 -38 -1
-48 13 -26 40 14 17 17 29 10 42 -6 10 -15 15 -20 11 -11 -6 -7 46 5 64 3 6
-2 13 -11 16 -15 6 -15 8 -3 17 19 12 89 5 104 -12z"/>
<path d="M3102 1008 c-6 -6 -8 -17 -4 -26 4 -12 1 -14 -12 -9 -10 4 -24 1 -32
-7 -10 -11 -11 -15 -1 -19 22 -8 -8 -42 -37 -42 -14 1 -26 -2 -26 -7 0 -4 -15
-9 -32 -11 -21 -3 -15 -4 14 -3 25 1 44 -2 42 -6 -2 -3 4 -9 13 -12 10 -3 -8
-4 -39 -2 -31 1 -55 -1 -53 -4 7 -11 -47 -34 -72 -32 -14 0 -23 -5 -23 -13 0
-9 -6 -12 -17 -9 -16 5 -15 4 1 -6 17 -12 73 -10 151 4 46 8 126 41 119 49 -4
4 6 7 22 7 16 0 24 4 17 8 -16 10 41 73 107 117 l55 36 -92 -2 c-50 -1 -96 -6
-101 -11z"/>
<path d="M1742 633 c-51 -53 -90 -98 -87 -101 3 -3 20 11 37 31 44 49 129 119
136 113 3 -3 -31 -43 -74 -89 -71 -74 -135 -161 -105 -143 20 13 12 -4 -29
-63 -43 -61 -107 -204 -115 -258 -3 -18 -7 -49 -11 -68 l-5 -36 435 2 c274 0
436 4 436 10 0 6 3 8 8 6 8 -6 7 116 -2 139 -3 8 -11 12 -17 8 -7 -4 -21 -8
-33 -9 -36 -4 -37 -5 -31 -16 4 -6 4 -26 1 -45 -6 -30 -11 -34 -37 -34 -17 0
-28 4 -25 9 4 5 0 11 -6 14 -9 3 -7 9 7 20 11 8 24 13 29 10 5 -4 6 -1 2 6 -5
7 -11 10 -14 7 -3 -4 -16 1 -30 10 -17 11 -27 13 -35 5 -8 -8 -7 -11 3 -11 10
0 11 -3 4 -10 -6 -6 -18 -8 -27 -4 -15 5 -13 9 9 27 25 19 26 21 8 28 -27 11
-36 10 -29 -1 4 -6 -6 -10 -22 -10 -16 0 -35 -6 -43 -12 -11 -10 -11 -9 0 6
14 18 13 19 -3 13 -11 -4 -16 -3 -12 3 8 13 3 13 -32 -2 -15 -6 -33 -10 -40
-9 -7 1 -20 -10 -29 -24 -13 -20 -25 -25 -56 -25 -49 0 -128 19 -128 31 0 12
0 12 48 -5 27 -10 50 -12 69 -6 28 8 28 8 -7 9 -19 1 -52 6 -73 12 l-38 10 38
72 c35 67 37 75 26 107 -7 19 -12 65 -12 103 l-1 67 63 1 c42 0 56 3 42 9 -11
4 -39 7 -62 6 -40 -2 -41 -2 -45 33 -4 49 13 99 32 93 23 -7 31 -24 25 -50 -8
-32 10 -20 29 20 9 17 16 32 16 32 0 1 -10 2 -22 2 -69 4 -77 8 -72 31 4 13 4
23 2 23 -3 0 -46 -43 -96 -97z"/>
</g>
</svg>

